<svg width="254" height="59" viewBox="0 0 254 59" fill="none" xmlns="http://www.w3.org/2000/svg">
<g clip-path="url(#clip0_15_2)">
<circle cx="9" cy="9" r="9" fill="#981E16"/>
<circle cx="9" cy="49" r="9" fill="#981E16"/>
<rect x="7" y="14" width="4" height="42" fill="#981E16"/>
<path d="M37.048 21.176H44.488L39.352 47H31.912L37.048 21.176ZM42.04 17.576C40.76 17.576 39.704 17.208 38.872 16.472C38.072 15.704 37.672 14.776 37.672 13.688C37.672 12.408 38.12 11.352 39.016 10.52C39.944 9.656 41.144 9.224 42.616 9.224C43.928 9.224 44.984 9.592 45.784 10.328C46.616 11.032 47.032 11.912 47.032 12.968C47.032 14.344 46.568 15.464 45.64 16.328C44.712 17.16 43.512 17.576 42.04 17.576ZM68.8626 20.792C71.7426 20.792 74.0306 21.56 75.7266 23.096C77.4226 24.6 78.2706 26.76 78.2706 29.576C78.2706 30.632 78.1586 31.672 77.9346 32.696L75.0546 47H67.5666L70.3506 33.176C70.4786 32.632 70.5426 32.04 70.5426 31.4C70.5426 30.056 70.1746 29.032 69.4386 28.328C68.7026 27.624 67.5986 27.272 66.1266 27.272C64.2066 27.272 62.6066 27.832 61.3266 28.952C60.0786 30.04 59.2306 31.688 58.7826 33.896L56.1906 47H48.7026L53.8386 21.176H60.9426L60.3666 23.96C62.6706 21.848 65.5026 20.792 68.8626 20.792ZM93.4101 37.88C93.3461 38.136 93.3141 38.488 93.3141 38.936C93.3141 40.6 94.2101 41.432 96.0021 41.432C97.0261 41.432 98.0501 41.128 99.0741 40.52L100.178 45.848C98.5141 46.872 96.3541 47.384 93.6981 47.384C91.2661 47.384 89.3141 46.744 87.8421 45.464C86.4021 44.184 85.6821 42.424 85.6821 40.184C85.6821 39.544 85.7621 38.792 85.9221 37.928L90.3861 15.464H97.8741L96.6261 21.752H103.01L101.858 27.512H95.4741L93.4101 37.88ZM121.418 20.792C125.098 20.792 128.058 21.8 130.298 23.816C132.57 25.832 133.706 28.712 133.706 32.456C133.706 33.096 133.69 33.576 133.658 33.896L113.738 37.544C114.41 40.104 116.57 41.384 120.218 41.384C121.562 41.384 122.826 41.192 124.01 40.808C125.194 40.392 126.218 39.784 127.082 38.984L130.202 43.928C128.762 45.08 127.114 45.944 125.258 46.52C123.402 47.096 121.45 47.384 119.402 47.384C116.746 47.384 114.41 46.92 112.394 45.992C110.41 45.032 108.874 43.672 107.786 41.912C106.73 40.152 106.202 38.12 106.202 35.816C106.202 32.968 106.842 30.408 108.122 28.136C109.402 25.832 111.194 24.04 113.498 22.76C115.834 21.448 118.474 20.792 121.418 20.792ZM121.082 26.408C119.066 26.408 117.418 27.016 116.138 28.232C114.89 29.448 114.074 31.08 113.69 33.128L126.746 30.728C126.554 29.352 125.946 28.296 124.922 27.56C123.93 26.792 122.65 26.408 121.082 26.408ZM149.597 24.248C150.717 23.032 152.061 22.152 153.629 21.608C155.229 21.064 157.101 20.792 159.245 20.792L157.901 27.704C157.005 27.64 156.429 27.608 156.173 27.608C153.901 27.608 152.077 28.168 150.701 29.288C149.357 30.408 148.445 32.152 147.965 34.52L145.469 47H137.981L143.117 21.176H150.221L149.597 24.248ZM191.159 41.432C192.023 41.432 192.743 41.304 193.319 41.048L192.551 46.76C191.271 47.176 189.911 47.384 188.471 47.384C186.615 47.384 185.079 47.016 183.863 46.28C182.679 45.544 181.863 44.52 181.415 43.208C179.143 45.992 176.103 47.384 172.295 47.384C170.279 47.384 168.423 46.92 166.727 45.992C165.031 45.064 163.671 43.736 162.647 42.008C161.655 40.248 161.159 38.184 161.159 35.816C161.159 32.968 161.783 30.408 163.031 28.136C164.311 25.832 166.039 24.04 168.215 22.76C170.391 21.448 172.791 20.792 175.415 20.792C179.383 20.792 182.183 22.088 183.815 24.68L184.487 21.176H191.975L188.615 37.928C188.551 38.184 188.519 38.536 188.519 38.984C188.519 39.816 188.743 40.44 189.191 40.856C189.671 41.24 190.327 41.432 191.159 41.432ZM174.599 41.192C176.071 41.192 177.383 40.84 178.535 40.136C179.687 39.4 180.583 38.392 181.223 37.112C181.863 35.832 182.183 34.36 182.183 32.696C182.183 30.936 181.655 29.544 180.599 28.52C179.575 27.496 178.135 26.984 176.279 26.984C174.807 26.984 173.495 27.352 172.343 28.088C171.191 28.792 170.295 29.784 169.655 31.064C169.015 32.344 168.695 33.816 168.695 35.48C168.695 37.24 169.207 38.632 170.231 39.656C171.287 40.68 172.743 41.192 174.599 41.192ZM230 21.176L222.992 56.312H215.504L217.76 44.888C215.712 46.552 213.232 47.384 210.32 47.384C208.304 47.384 206.448 46.92 204.752 45.992C203.056 45.064 201.696 43.736 200.672 42.008C199.68 40.248 199.184 38.184 199.184 35.816C199.184 32.968 199.808 30.408 201.056 28.136C202.336 25.832 204.064 24.04 206.24 22.76C208.416 21.448 210.816 20.792 213.44 20.792C215.456 20.792 217.2 21.16 218.672 21.896C220.176 22.6 221.312 23.672 222.08 25.112L222.848 21.176H230ZM206.72 35.48C206.72 37.24 207.232 38.632 208.256 39.656C209.312 40.68 210.768 41.192 212.624 41.192C214.096 41.192 215.408 40.84 216.56 40.136C217.712 39.4 218.608 38.392 219.248 37.112C219.888 35.832 220.208 34.36 220.208 32.696C220.208 30.936 219.68 29.544 218.624 28.52C217.6 27.496 216.16 26.984 214.304 26.984C212.832 26.984 211.52 27.352 210.368 28.088C209.216 28.792 208.32 29.784 207.68 31.064C207.04 32.344 206.72 33.816 206.72 35.48ZM243.316 37.88C243.252 38.136 243.22 38.488 243.22 38.936C243.22 40.6 244.116 41.432 245.908 41.432C246.932 41.432 247.956 41.128 248.98 40.52L250.084 45.848C248.42 46.872 246.26 47.384 243.604 47.384C241.172 47.384 239.22 46.744 237.748 45.464C236.308 44.184 235.588 42.424 235.588 40.184C235.588 39.544 235.668 38.792 235.828 37.928L240.292 15.464H247.78L246.532 21.752H252.916L251.764 27.512H245.38L243.316 37.88Z" fill="black"/>
</g>
<defs>
<clipPath id="clip0_15_2">
<rect width="254" height="59" fill="white"/>
</clipPath>
</defs>
</svg>
